#!OML:ASF E:\emotionWalksFemale\Project 1\Capture day 1\Session 1\Female1.ASF
:FULLY-SPECIFIED
:DEGREES
2026
root 8.91593 15.3672 -35.641 174.6 5.77296 178.395
lowerback 4.11586 -0.728311 -7.24365
upperback -2.46233 -1.35753 -2.66093
thorax -4.77289 -0.404222 1.39292
lowerneck 5.86287 -1.22298 -3.86513
upperneck -3.24008 -1.97365 -4.65959
head -2.03134 -0.727129 -0.748116
rclavicle -6.55989e-015 4.21423e-014
rhumerus -33.9921 -12.4331 -74.753
rradius 33.2057
rwrist 18.9768
rhand 1.56733 -46.4305
rfingers 7.12502
rthumb 27.0907 -74.5068
lclavicle -6.55989e-015 4.21423e-014
lhumerus -39.678 20.0214 52.9475
lradius 36.5037
lwrist -8.54074
lhand -15.1046 -29.5673
lfingers 7.12502
lthumb 11.0639 0.121104
rfemur -24.4864 10.3963 16.848
rtibia 58.3333
rfoot -23.4265 -11.1353
rtoes -10.9562
lfemur 4.47027 -23.563 -33.6843
ltibia 19.9554
lfoot -27.7781 25.7009
ltoes 4.30089
2027
root 8.90418 15.3499 -35.6975 174.212 5.51738 177.92
lowerback 4.05301 -0.717433 -7.5074
upperback -2.257 -1.3373 -2.72441
thorax -4.51969 -0.397184 1.4705
lowerneck 5.85888 -1.21896 -4.00779
upperneck -2.9584 -1.95673 -4.84525
head -1.93886 -0.714315 -0.783261
rclavicle 1.25234e-014 3.18055e-015
rhumerus -34.2203 -13.9126 -74.6341
rradius 32.4619
rwrist 20.214
rhand 3.19678 -46.4221
rfingers 7.12502
rthumb 28.6486 -74.2457
lclavicle 1.25234e-014 3.18055e-015
lhumerus -39.6375 20.1203 53.6702
lradius 36.4811
lwrist -8.32082
lhand -15.4301 -29.8419
lfingers 7.12502
lthumb 10.7499 -0.136976
rfemur -23.7753 10.8323 16.2207
rtibia 56.5894
rfoot -23.7515 -11.1478
rtoes -12.8963
lfemur 5.07129 -23.169 -34.4734
ltibia 20.0165
lfoot -27.7667 25.3183
ltoes 3.89302
2028
root 8.89148 15.3569 -35.7411 174.227 5.30439 178.343
lowerback 4.21661 -0.701191 -6.89775
upperback -2.40724 -1.31826 -2.49544
thorax -4.7776 -0.402423 1.37221
lowerneck 6.22341 -1.2201 -4.18926
upperneck -2.72505 -1.9708 -5.09022
head -1.92949 -0.705331 -0.828397
rclavicle 8.15017e-015 -5.1684e-014
rhumerus -34.8087 -15.0863 -74.3149
rradius 31.6915
rwrist 20.9412
rhand 4.33418 -46.0582
rfingers 7.12502
rthumb 29.7347 -73.6932
lclavicle 8.15017e-015 -5.1684e-014
lhumerus -39.9634 19.8775 54.504
lradius 36.6234
lwrist -7.93589
lhand -15.751 -29.9652
lfingers 7.12502
lthumb 10.4403 -0.244389
rfemur -23.4859 11.6154 16.5104
rtibia 54.5807
rfoot -23.879 -11.5532
rtoes -15.8091
lfemur 5.14864 -22.6635 -34.0048
ltibia 20.1713
lfoot -27.4362 24.8362
ltoes 2.22771
2029
root 8.88073 15.3465 -35.7812 174.444 5.05007 178.366
lowerback 4.40431 -0.761047 -6.76635
upperback -2.78348 -1.42465 -2.37659
thorax -5.27262 -0.435424 1.43444
lowerneck 6.30773 -1.31188 -3.91049
upperneck -2.10688 -2.03279 -5.78018
head -1.75713 -0.726521 -1.09173
rclavicle 2.18663e-015 -1.51076e-014
rhumerus -35.4373 -16.0288 -73.997
rradius 30.6294
rwrist 21.422
rhand 5.8513 -45.8936
rfingers 7.12502
rthumb 31.1816 -73.2603
lclavicle 2.18663e-015 -1.51076e-014
lhumerus -40.5856 19.6917 55.1026
lradius 36.8397
lwrist -7.6198
lhand -15.7811 -30.017
lfingers 7.12502
lthumb 10.4113 -0.294785
rfemur -23.2448 12.3086 16.2981
rtibia 52.6584
rfoot -24.1659 -11.5487
rtoes -18.6722
lfemur 4.87688 -22.255 -33.8701
ltibia 20.3946
lfoot -27.2345 24.4049
ltoes 0.896733
2030
root 8.87727 15.3341 -35.8246 174.57 4.91829 178.587
lowerback 4.09189 -0.737283 -6.51409
upperback -2.72686 -1.35134 -2.19351
thorax -5.03963 -0.41916 1.47481
lowerneck 5.7407 -1.57824 -3.57738
upperneck -1.3561 -2.26616 -6.62774
head -1.4363 -0.845491 -1.41108
rclavicle 1.64991e-014 8.74653e-015
rhumerus -35.8733 -16.7384 -73.88
rradius 30.367
rwrist 21.0662
rhand 7.81641 -46.2633
rfingers 7.12502
rthumb 33.0525 -73.2524
lclavicle 1.64991e-014 8.74653e-015
lhumerus -40.462 19.9478 55.9732
lradius 36.8819
lwrist -7.51371
lhand -15.6228 -29.6958
lfingers 7.12502
lthumb 10.564 0.0187379
rfemur -22.8967 13.3115 16.3897
rtibia 50.7129
rfoot -23.8292 -11.4552
rtoes -20.8155
lfemur 4.67454 -22.0871 -33.5907
ltibia 20.7526
lfoot -27.5167 24.0342
ltoes 1.81416
2031
root 8.8658 15.3214 -35.8748 174.607 4.52298 178.465
lowerback 3.82457 -0.759735 -6.50517
upperback -2.72589 -1.35651 -2.09025
thorax -4.88325 -0.426481 1.57382
lowerneck 5.95624 -1.56282 -3.80741
upperneck -1.15334 -2.24316 -6.69741
head -1.40596 -0.825892 -1.39375
rclavicle -6.75868e-015 -4.77083e-015
rhumerus -36.3541 -17.2828 -73.5699
rradius 29.941
rwrist 20.3576
rhand 9.66567 -46.7604
rfingers 7.12502
rthumb 34.8092 -73.3608
lclavicle -6.75868e-015 -4.77083e-015
lhumerus -40.4154 20.1543 56.9451
lradius 36.7443
lwrist -7.42222
lhand -15.6264 -29.5167
lfingers 7.12502
lthumb 10.5606 0.198008
rfemur -22.3778 13.9341 16.0233
rtibia 48.927
rfoot -25.2248 -10.8992
rtoes -18.8949
lfemur 4.63953 -22.0108 -33.8341
ltibia 21.1705
lfoot -27.8014 23.551
ltoes 2.54143
2032
root 8.85642 15.314 -35.9242 174.741 4.08281 178.321
lowerback 3.54109 -0.796204 -6.5258
upperback -2.78669 -1.38073 -2.0193
thorax -4.78137 -0.437932 1.65655
lowerneck 5.93888 -1.65988 -3.82924
upperneck -0.694753 -2.31997 -6.99587
head -1.262 -0.863867 -1.48214
rclavicle 3.26007e-014 4.21423e-014
rhumerus -36.864 -17.8133 -73.2411
rradius 29.4319
rwrist 19.3787
rhand 11.1067 -47.3837
rfingers 7.12502
rthumb 36.1752 -73.657
lclavicle 3.26007e-014 4.21423e-014
lhumerus -40.3639 20.2667 57.8938
lradius 36.5348
lwrist -7.30254
lhand -15.7132 -29.9345
lfingers 7.12502
lthumb 10.4768 -0.215602
rfemur -22.0056 14.5895 15.617
rtibia 47.265
rfoot -25.6973 -10.7201
rtoes -19.5216
lfemur 4.60351 -21.8625 -34.006
ltibia 21.2893
lfoot -27.7663 23.1011
ltoes 2.04697
2033
root 8.84678 15.3093 -35.9665 175.015 3.6269 178.507
lowerback 3.35134 -0.899326 -6.27051
upperback -2.9782 -1.49447 -1.84889
thorax -4.86586 -0.495587 1.69737
lowerneck 5.93409 -1.75962 -3.77007
upperneck -0.270156 -2.3946 -7.38007
head -1.13506 -0.897475 -1.6125
rclavicle 1.04362e-014 2.54444e-014
rhumerus -37.4696 -18.1126 -72.9723
rradius 28.8828
rwrist 17.9456
rhand 11.3634 -47.2795
rfingers 7.12502
rthumb 36.4183 -73.4922
lclavicle 1.04362e-014 2.54444e-014
lhumerus -40.58 20.4212 58.6911
lradius 36.543
lwrist -7.23662
lhand -15.5898 -30.114
lfingers 7.12502
lthumb 10.5959 -0.401079
rfemur -21.7512 15.2578 15.5471
rtibia 45.63
rfoot -25.9844 -10.5238
rtoes -20.0223
lfemur 4.36646 -21.6613 -33.7043
ltibia 21.3998
lfoot -27.5085 22.7134
ltoes 0.700426
2034
root 8.83583 15.2884 -36.0336 174.589 2.90482 177.772
lowerback 3.36078 -0.934978 -6.76941
upperback -2.89339 -1.5595 -1.99704
thorax -4.77132 -0.512038 1.82466
lowerneck 5.92078 -1.96272 -3.8028
upperneck 0.247269 -2.593 -7.81286
head -0.979973 -0.991973 -1.7401
rclavicle 5.66536e-015 1.98785e-014
rhumerus -38.172 -18.997 -72.1028
rradius 28.3762
rwrist 18.1636
rhand 14.0629 -47.065
rfingers 7.12502
rthumb 38.9688 -72.5939
lclavicle 5.66536e-015 1.98785e-014
lhumerus -40.6913 20.6194 59.588
lradius 36.5463
lwrist -7.52559
lhand -15.2845 -30.1171
lfingers 7.12502
lthumb 10.8904 -0.41952
rfemur -20.552 15.6181 14.6256
rtibia 44.1145
rfoot -26.5754 -10.1715
rtoes -20.4927
lfemur 5.02062 -21.3449 -34.7665
ltibia 21.5084
lfoot -27.3077 22.2965
ltoes -1.3616
2035
root 8.82685 15.2737 -36.0737 174.704 2.49546 177.842
lowerback 3.6552 -0.896643 -6.50566
upperback -3.28578 -1.5317 -1.87291
thorax -5.35688 -0.478521 1.81183
lowerneck 6.1207 -2.13178 -3.78312
upperneck 0.997244 -2.70985 -8.42869
head -0.79179 -1.03867 -1.93859
rclavicle 2.52457e-014 4.77083e-015
rhumerus -39.1816 -19.7907 -70.9134
rradius 27.7465
rwrist 18.3839
rhand 16.3866 -47.2078
rfingers 7.12502
rthumb 41.1552 -72.0747
lclavicle 2.52457e-014 4.77083e-015
lhumerus -41.187 20.4073 60.525
lradius 36.601
lwrist -7.59068
lhand -14.9412 -30.1849
lfingers 7.12502
lthumb 11.2214 -0.505057
rfemur -19.9922 16.4877 14.5221
rtibia 42.5424
rfoot -26.5885 -10.1651
rtoes -21.5326
lfemur 4.86072 -21.1109 -34.6352
ltibia 21.7744
lfoot -27.1408 21.7749
ltoes -1.34047
